<svg width="712" height="92" viewBox="0 0 712 92" fill="none" xmlns="http://www.w3.org/2000/svg">
<path d="M5.95764 90.0811C4.30164 90.0811 2.9091 89.5168 1.78 88.3881C0.650913 87.2595 0.0863647 85.8675 0.0863647 84.2121V7.80258C0.0863647 6.07199 0.650913 4.67999 1.78 3.62659C2.9091 2.49794 4.30164 1.93361 5.95764 1.93361H26.2813C31.9267 1.93361 36.9324 3.1375 41.2982 5.54529C45.664 7.87783 49.0513 11.1133 51.46 15.2517C53.944 19.39 55.186 24.2056 55.186 29.6984C55.186 34.8149 53.944 39.3671 51.46 43.355C49.0513 47.3429 45.664 50.4655 41.2982 52.7228C36.9324 54.9801 31.9267 56.1087 26.2813 56.1087H11.8289V84.2121C11.8289 85.8675 11.2644 87.2595 10.1353 88.3881C9.08146 89.5168 7.68892 90.0811 5.95764 90.0811ZM52.8149 90.0811C51.7611 90.0811 50.7826 89.8553 49.8793 89.4039C49.0513 88.9524 48.3362 88.2376 47.734 87.2594L27.4104 54.5286L38.8142 51.2556L57.3313 81.0519C58.6862 83.2339 58.8744 85.3031 57.8958 87.2594C56.9173 89.1405 55.2237 90.0811 52.8149 90.0811ZM11.8289 45.2737H26.2813C29.7438 45.2737 32.7924 44.6342 35.4269 43.355C38.0615 42.0006 40.1315 40.1572 41.6369 37.8246C43.1424 35.4169 43.8951 32.7081 43.8951 29.6984C43.8951 26.3877 43.1424 23.4532 41.6369 20.8949C40.1315 18.3366 38.0615 16.3427 35.4269 14.9131C32.7924 13.4834 29.7438 12.7686 26.2813 12.7686H11.8289V45.2737ZM91.5241 90.5325C86.0292 90.5325 81.0989 89.1782 76.7331 86.4694C72.3672 83.6854 68.9047 79.9609 66.3454 75.2958C63.8614 70.5555 62.6194 65.2132 62.6194 59.269C62.6194 53.3247 63.9743 47.9825 66.6842 43.2422C69.4692 38.5018 73.1952 34.7773 77.8622 32.0685C82.6043 29.2845 87.9111 27.8925 93.7823 27.8925C99.6536 27.8925 104.923 29.2845 109.59 32.0685C114.257 34.7773 117.945 38.5018 120.655 43.2422C123.44 47.9825 124.832 53.3247 124.832 59.269H120.429C120.429 65.2132 119.149 70.5555 116.59 75.2958C114.106 79.9609 110.681 83.6854 106.315 86.4694C101.949 89.1782 97.0191 90.5325 91.5241 90.5325ZM93.7823 80.3747C97.6213 80.3747 101.046 79.4718 104.057 77.6659C107.068 75.7849 109.439 73.2642 111.17 70.104C112.902 66.8685 113.767 63.2569 113.767 59.269C113.767 55.2058 112.902 51.5942 111.17 48.4339C109.439 45.1985 107.068 42.6778 104.057 40.872C101.046 38.9909 97.6213 38.0504 93.7823 38.0504C90.0187 38.0504 86.5938 38.9909 83.5076 40.872C80.4967 42.6778 78.088 45.1985 76.2814 48.4339C74.5502 51.5942 73.6845 55.2058 73.6845 59.269C73.6845 63.2569 74.5502 66.8685 76.2814 70.104C78.088 73.2642 80.4967 75.7849 83.5076 77.6659C86.5938 79.4718 90.0187 80.3747 93.7823 80.3747ZM119.074 90.1939C117.418 90.1939 116.025 89.6672 114.896 88.6138C113.843 87.4852 113.316 86.0932 113.316 84.4378V67.1695L115.461 55.2058L124.832 59.269V84.4378C124.832 86.0932 124.268 87.4852 123.139 88.6138C122.085 89.6672 120.73 90.1939 119.074 90.1939ZM144.344 90.0811C142.688 90.0811 141.296 89.5544 140.167 88.501C139.113 87.3723 138.586 85.9803 138.586 84.325V34.1001C138.586 32.3695 139.113 30.9775 140.167 29.9241C141.296 28.8707 142.688 28.344 144.344 28.344C146.075 28.344 147.468 28.8707 148.522 29.9241C149.576 30.9775 150.103 32.3695 150.103 34.1001V84.325C150.103 85.9803 149.576 87.3723 148.522 88.501C147.468 89.5544 146.075 90.0811 144.344 90.0811ZM144.344 18.299C142.312 18.299 140.543 17.5842 139.037 16.1546C137.607 14.6497 136.892 12.8815 136.892 10.8499C136.892 8.81837 137.607 7.08778 139.037 5.65815C140.543 4.15329 142.312 3.40085 144.344 3.40085C146.377 3.40085 148.108 4.15329 149.538 5.65815C151.043 7.08778 151.796 8.81837 151.796 10.8499C151.796 12.8815 151.043 14.6497 149.538 16.1546C148.108 17.5842 146.377 18.299 144.344 18.299ZM219.175 90.1939C217.519 90.1939 216.126 89.6672 214.997 88.6138C213.943 87.4852 213.416 86.0932 213.416 84.4378V56.6731C213.416 52.3842 212.626 48.8854 211.045 46.1766C209.465 43.4679 207.319 41.4739 204.609 40.1948C201.975 38.8404 198.926 38.1632 195.464 38.1632C192.302 38.1632 189.442 38.8028 186.883 40.0819C184.323 41.3611 182.291 43.0917 180.786 45.2737C179.28 47.3805 178.527 49.8259 178.527 52.6099H171.414C171.414 47.8696 172.543 43.656 174.801 39.9691C177.135 36.2069 180.296 33.2348 184.286 31.0527C188.275 28.8707 192.754 27.7797 197.722 27.7797C202.916 27.7797 207.545 28.9083 211.61 31.1656C215.75 33.3477 218.987 36.5831 221.32 40.872C223.729 45.1609 224.933 50.4279 224.933 56.6731V84.4378C224.933 86.0932 224.369 87.4852 223.239 88.6138C222.186 89.6672 220.831 90.1939 219.175 90.1939ZM172.769 90.1939C171.113 90.1939 169.721 89.6672 168.591 88.6138C167.538 87.4852 167.011 86.0932 167.011 84.4378V34.1001C167.011 32.3695 167.538 30.9775 168.591 29.9241C169.721 28.8707 171.113 28.344 172.769 28.344C174.5 28.344 175.893 28.8707 176.947 29.9241C178.001 30.9775 178.527 32.3695 178.527 34.1001V84.4378C178.527 86.0932 178.001 87.4852 176.947 88.6138C175.893 89.6672 174.5 90.1939 172.769 90.1939ZM270.508 90.5325C264.637 90.5325 259.368 89.1782 254.701 86.4694C250.034 83.6854 246.346 79.9232 243.636 75.1829C240.926 70.4426 239.534 65.1003 239.458 59.1561V7.68972C239.458 5.95912 239.985 4.56713 241.039 3.51372C242.168 2.46031 243.561 1.93361 245.217 1.93361C246.948 1.93361 248.341 2.46031 249.394 3.51372C250.448 4.56713 250.975 5.95912 250.975 7.68972V38.1632C253.61 35.003 256.771 32.52 260.459 30.7142C264.223 28.8331 268.325 27.8925 272.767 27.8925C278.261 27.8925 283.192 29.2845 287.558 32.0685C291.923 34.7773 295.348 38.5018 297.832 43.2422C300.392 47.9072 301.671 53.2119 301.671 59.1561C301.671 65.1003 300.279 70.4426 297.494 75.1829C294.784 79.9232 291.095 83.6854 286.429 86.4694C281.762 89.1782 276.455 90.5325 270.508 90.5325ZM270.508 80.3747C274.347 80.3747 277.772 79.4718 280.783 77.6659C283.794 75.7849 286.165 73.2266 287.896 69.9911C289.703 66.7557 290.606 63.144 290.606 59.1561C290.606 55.093 289.703 51.4813 287.896 48.3211C286.165 45.1609 283.794 42.6778 280.783 40.872C277.772 38.9909 274.347 38.0504 270.508 38.0504C266.745 38.0504 263.32 38.9909 260.234 40.872C257.223 42.6778 254.852 45.1609 253.12 48.3211C251.389 51.4813 250.523 55.093 250.523 59.1561C250.523 63.144 251.389 66.7557 253.12 69.9911C254.852 73.2266 257.223 75.7849 260.234 77.6659C263.32 79.4718 266.745 80.3747 270.508 80.3747ZM342.333 90.5325C336.236 90.5325 330.854 89.2158 326.187 86.5823C321.52 83.8735 317.831 80.1866 315.122 75.5215C312.487 70.7812 311.17 65.3637 311.17 59.269C311.17 53.099 312.487 47.6815 315.122 43.0164C317.831 38.2761 321.52 34.5892 326.187 31.9557C330.854 29.2469 336.236 27.8925 342.333 27.8925C348.354 27.8925 353.699 29.2469 358.366 31.9557C363.033 34.5892 366.683 38.2761 369.318 43.0164C372.028 47.6815 373.383 53.099 373.383 59.269C373.383 65.3637 372.065 70.7812 369.431 75.5215C366.796 80.1866 363.146 83.8735 358.479 86.5823C353.812 89.2158 348.43 90.5325 342.333 90.5325ZM342.333 80.3747C346.247 80.3747 349.709 79.4718 352.72 77.6659C355.731 75.8601 358.065 73.3771 359.721 70.2169C361.452 67.0566 362.318 63.4073 362.318 59.269C362.318 55.1306 361.452 51.4813 359.721 48.3211C358.065 45.0856 355.731 42.565 352.72 40.7591C349.709 38.9533 346.247 38.0504 342.333 38.0504C338.418 38.0504 334.956 38.9533 331.945 40.7591C328.934 42.565 326.563 45.0856 324.832 48.3211C323.1 51.4813 322.235 55.1306 322.235 59.269C322.235 63.4073 323.1 67.0566 324.832 70.2169C326.563 73.3771 328.934 75.8601 331.945 77.6659C334.956 79.4718 338.418 80.3747 342.333 80.3747ZM396.814 90.0811C395.609 90.0811 394.48 89.7425 393.426 89.0653C392.448 88.3129 391.77 87.41 391.394 86.3565L374.683 36.2445C374.081 33.912 374.081 32.0309 374.683 30.6013C375.361 29.0964 376.791 28.344 378.974 28.344C380.404 28.344 381.571 28.7578 382.474 29.5855C383.453 30.3379 384.243 31.6547 384.845 33.5358L399.072 78.0045H395.12L408.556 32.6329C408.933 31.3537 409.572 30.3379 410.476 29.5855C411.379 28.7578 412.621 28.344 414.202 28.344C415.707 28.344 416.911 28.7578 417.815 29.5855C418.793 30.3379 419.433 31.3537 419.734 32.6329L430.686 75.2958H428.993L442.316 33.5358C443.37 30.0746 445.327 28.344 448.187 28.344C450.295 28.344 451.725 29.0964 452.478 30.6013C453.231 32.0309 453.193 33.912 452.365 36.2445L435.654 86.3565C435.353 87.41 434.713 88.3129 433.735 89.0653C432.756 89.7425 431.627 90.0811 430.348 90.0811C429.143 90.0811 428.014 89.7425 426.96 89.0653C425.907 88.3129 425.229 87.41 424.928 86.3565L413.298 43.355H414.427L402.233 86.3565C401.932 87.41 401.255 88.3129 400.201 89.0653C399.222 89.7425 398.093 90.0811 396.814 90.0811ZM500.864 91.2097C494.767 91.2097 489.046 90.0811 483.702 87.8238C478.433 85.4912 473.804 82.2934 469.814 78.2303C465.9 74.0919 462.814 69.2763 460.556 63.7836C458.373 58.2908 457.281 52.3466 457.281 45.9509C457.281 39.6305 458.373 33.7615 460.556 28.344C462.814 22.8512 465.9 18.0733 469.814 14.0102C473.804 9.87178 478.433 6.63632 483.702 4.30378C488.971 1.97123 494.692 0.804962 500.864 0.804962C506.66 0.804962 511.628 1.5574 515.768 3.06226C519.983 4.56713 524.199 7.05015 528.414 10.5113C529.016 10.9628 529.468 11.4519 529.769 11.9786C530.145 12.43 530.371 12.9191 530.446 13.4458C530.597 13.8973 530.672 14.4616 530.672 15.1388C530.672 16.5684 530.145 17.7723 529.091 18.7505C528.113 19.6534 526.908 20.1801 525.478 20.3306C524.048 20.4058 522.656 19.9167 521.301 18.8633C518.516 16.4556 515.618 14.6121 512.607 13.333C509.671 12.0538 505.757 11.4143 500.864 11.4143C496.423 11.4143 492.245 12.3172 488.331 14.123C484.417 15.9289 480.954 18.4119 477.944 21.5721C475.008 24.7323 472.712 28.4192 471.056 32.6329C469.4 36.7712 468.572 41.2106 468.572 45.9509C468.572 50.7665 469.4 55.2811 471.056 59.4947C472.712 63.6331 475.008 67.2824 477.944 70.4426C480.954 73.6028 484.417 76.0858 488.331 77.8917C492.245 79.6223 496.423 80.4876 500.864 80.4876C504.703 80.4876 508.316 79.848 511.703 78.5689C515.166 77.2145 518.478 75.371 521.639 73.0385C522.994 72.0603 524.312 71.6465 525.591 71.797C526.946 71.8722 528.075 72.3989 528.979 73.3771C529.882 74.28 530.333 75.5591 530.333 77.2145C530.333 77.9669 530.183 78.7193 529.882 79.4718C529.581 80.149 529.129 80.7885 528.527 81.3905C524.462 84.6259 520.096 87.0713 515.429 88.7267C510.838 90.382 505.983 91.2097 500.864 91.2097ZM564.693 90.5325C559.198 90.5325 554.268 89.1782 549.902 86.4694C545.536 83.6854 542.074 79.9609 539.514 75.2958C537.03 70.5555 535.788 65.2132 535.788 59.269C535.788 53.3247 537.143 47.9825 539.853 43.2422C542.638 38.5018 546.364 34.7773 551.031 32.0685C555.773 29.2845 561.08 27.8925 566.951 27.8925C572.823 27.8925 578.092 29.2845 582.759 32.0685C587.425 34.7773 591.114 38.5018 593.824 43.2422C596.609 47.9825 598.001 53.3247 598.001 59.269H593.598C593.598 65.2132 592.318 70.5555 589.759 75.2958C587.275 79.9609 583.85 83.6854 579.484 86.4694C575.118 89.1782 570.188 90.5325 564.693 90.5325ZM566.951 80.3747C570.79 80.3747 574.215 79.4718 577.226 77.6659C580.237 75.7849 582.608 73.2642 584.339 70.104C586.07 66.8685 586.936 63.2569 586.936 59.269C586.936 55.2058 586.07 51.5942 584.339 48.4339C582.608 45.1985 580.237 42.6778 577.226 40.872C574.215 38.9909 570.79 38.0504 566.951 38.0504C563.188 38.0504 559.763 38.9909 556.677 40.872C553.666 42.6778 551.257 45.1985 549.45 48.4339C547.719 51.5942 546.853 55.2058 546.853 59.269C546.853 63.2569 547.719 66.8685 549.45 70.104C551.257 73.2642 553.666 75.7849 556.677 77.6659C559.763 79.4718 563.188 80.3747 566.951 80.3747ZM592.243 90.1939C590.587 90.1939 589.194 89.6672 588.065 88.6138C587.011 87.4852 586.484 86.0932 586.484 84.4378V67.1695L588.63 55.2058L598.001 59.269V84.4378C598.001 86.0932 597.437 87.4852 596.308 88.6138C595.254 89.6672 593.899 90.1939 592.243 90.1939ZM616.158 51.4813C616.158 46.9667 617.25 42.9412 619.433 39.4048C621.691 35.7931 624.702 32.9338 628.466 30.827C632.229 28.7202 636.369 27.6668 640.886 27.6668C645.402 27.6668 648.752 28.4192 650.935 29.9241C653.193 31.3537 654.058 33.0843 653.531 35.1159C653.306 36.1693 652.854 36.997 652.176 37.5989C651.574 38.1256 650.859 38.4642 650.031 38.6147C649.203 38.7652 648.3 38.7276 647.321 38.5018C642.504 37.5237 638.176 37.4484 634.337 38.2761C630.498 39.1038 627.449 40.6463 625.191 42.9036C623.008 45.1609 621.917 48.0201 621.917 51.4813H616.158ZM616.271 90.0811C614.465 90.0811 613.072 89.6296 612.094 88.7267C611.115 87.7485 610.626 86.3189 610.626 84.4378V33.9872C610.626 32.1814 611.115 30.7894 612.094 29.8112C613.072 28.8331 614.465 28.344 616.271 28.344C618.153 28.344 619.546 28.8331 620.449 29.8112C621.428 30.7142 621.917 32.1062 621.917 33.9872V84.4378C621.917 86.2437 621.428 87.6357 620.449 88.6138C619.546 89.592 618.153 90.0811 616.271 90.0811ZM685.515 90.5325C679.268 90.5325 673.697 89.2158 668.805 86.5823C663.987 83.8735 660.186 80.1866 657.401 75.5215C654.691 70.7812 653.336 65.3637 653.336 59.269C653.336 53.099 654.616 47.6815 657.175 43.0164C659.81 38.2761 663.423 34.5892 668.014 31.9557C672.606 29.2469 677.875 27.8925 683.822 27.8925C689.693 27.8925 694.736 29.2093 698.951 31.8428C703.167 34.4011 706.366 37.9751 708.549 42.565C710.807 47.0796 711.936 52.309 711.936 58.2532C711.936 59.6828 711.447 60.8867 710.468 61.8649C709.49 62.7678 708.248 63.2192 706.742 63.2192H661.24V54.19H706.403L701.774 57.3503C701.699 53.5881 700.946 50.2398 699.516 47.3053C698.086 44.2956 696.053 41.9254 693.419 40.1948C690.784 38.4642 687.585 37.5989 683.822 37.5989C679.531 37.5989 675.843 38.5395 672.756 40.4205C669.746 42.3016 667.45 44.8975 665.869 48.2082C664.288 51.4437 663.498 55.1306 663.498 59.269C663.498 63.4073 664.439 67.0943 666.321 70.3297C668.203 73.5652 670.799 76.1235 674.111 78.0045C677.423 79.8856 681.225 80.8261 685.515 80.8261C687.849 80.8261 690.22 80.4123 692.628 79.5846C695.112 78.6817 697.107 77.6659 698.613 76.5373C699.742 75.7096 700.946 75.2958 702.226 75.2958C703.581 75.2205 704.747 75.5968 705.726 76.4244C707.006 77.5531 707.683 78.7946 707.758 80.149C707.834 81.5034 707.231 82.6696 705.952 83.6478C703.392 85.6794 700.193 87.3347 696.354 88.6138C692.591 89.893 688.978 90.5325 685.515 90.5325Z" fill="#C03DCF"/>
</svg>
